<svg width="12" height="19" viewBox="0 0 12 19" fill="none" xmlns="http://www.w3.org/2000/svg">
<path d="M3.68324 18.2429L11.4432 10.4829C11.7099 10.2162 11.8432 9.86958 11.8432 9.44291C11.8432 9.01624 11.7099 8.66958 11.4432 8.40291L3.68324 0.642911C3.57658 0.536244 3.41658 0.469577 3.20324 0.442911C2.98991 0.416244 2.80324 0.482911 2.64324 0.642911L0.483242 2.80291C0.376576 2.96291 0.323242 3.13624 0.323242 3.32291C0.323242 3.50958 0.376576 3.68291 0.483242 3.84291L6.08324 9.44291L0.483242 15.0429C0.376576 15.2029 0.323242 15.3762 0.323242 15.5629C0.323242 15.7496 0.376576 15.9229 0.483242 16.0829L2.64324 18.2429C2.80324 18.4029 2.98991 18.4829 3.20324 18.4829C3.41658 18.4829 3.57658 18.4029 3.68324 18.2429Z" fill="#9AA5CE"/>
</svg>
