<svg width="49" height="48" viewBox="0 0 49 48" fill="none" xmlns="http://www.w3.org/2000/svg">
<path d="M23.21 25.44V14.56C23.21 14.3467 23.1566 14.1867 23.05 14.08C22.6233 13.6533 22.0633 13.3333 21.37 13.12C20.6766 12.9067 20.0633 12.8 19.53 12.8H15.69C15.4766 12.8 15.3166 12.8533 15.21 12.96C15.1033 13.0667 15.05 13.2267 15.05 13.44V23.2C15.05 23.4133 15.1033 23.6 15.21 23.76C15.3166 23.92 15.4766 24 15.69 24H18.41C19.05 24 19.7966 24.1067 20.65 24.32C21.93 24.64 22.7833 25.0133 23.21 25.44ZM24.81 25.44V14.56C24.81 14.3467 24.8633 14.1867 24.97 14.08C25.3966 13.6533 25.9566 13.3333 26.65 13.12C27.3433 12.9067 27.9566 12.8 28.49 12.8H32.33C32.5433 12.8 32.7033 12.8533 32.81 12.96C32.9166 13.0667 32.97 13.2267 32.97 13.44V23.2C32.97 23.4133 32.9166 23.6 32.81 23.76C32.7033 23.92 32.5433 24 32.33 24H29.61C28.97 24 28.2233 24.1067 27.37 24.32C26.09 24.64 25.2366 25.0133 24.81 25.44ZM15.69 25.12C15.4766 25.12 15.3166 25.1467 15.21 25.2C15.1033 25.2533 15.05 25.3867 15.05 25.6C15.05 25.8133 15.13 26.0267 15.29 26.24C15.45 26.4533 15.5833 26.56 15.69 26.56H18.41C19.5833 26.56 20.7033 26.8267 21.77 27.36C22.41 27.68 22.9966 28.1067 23.53 28.64C23.6366 28.7467 23.7966 28.8 24.01 28.8C24.2233 28.8 24.3833 28.7467 24.49 28.64C25.0233 28.1067 25.61 27.68 26.25 27.36C27.3166 26.8267 28.4366 26.56 29.61 26.56H32.33C32.4366 26.56 32.57 26.4533 32.73 26.24C32.89 26.0267 32.97 25.8133 32.97 25.6C32.97 25.3867 32.9166 25.2267 32.81 25.12H29.61C28.4366 25.12 27.3433 25.3067 26.33 25.68C25.3166 26.0533 24.5433 26.5067 24.01 27.04C23.4766 26.5067 22.7033 26.0533 21.69 25.68C20.6766 25.3067 19.5833 25.12 18.41 25.12H15.69ZM42.09 39.04C42.09 39.8933 41.7966 40.5867 41.21 41.12C40.6233 41.6533 39.9033 41.92 39.05 41.92H8.96997C8.11663 41.92 7.4233 41.6533 6.88997 41.12C6.35663 40.5867 6.08997 39.8933 6.08997 39.04V14.4C6.08997 13.76 6.19663 13.2267 6.40997 12.8L9.60997 7.52C9.92997 6.98666 10.3033 6.58667 10.73 6.32C11.1566 6.05333 11.6366 5.92 12.17 5.92H35.85C36.3833 5.92 36.8633 6.05333 37.29 6.32C37.7166 6.58667 38.09 6.98666 38.41 7.52L41.61 12.8C41.93 13.2267 42.09 13.76 42.09 14.4V39.04ZM12.01 7.52C11.5833 7.52 11.2366 7.65333 10.97 7.92C10.7033 8.18666 10.57 8.53333 10.57 8.96V30.24C10.57 30.9867 10.41 31.68 10.09 32.32L7.52997 37.12C7.52997 37.3333 7.55663 37.5467 7.60997 37.76C7.6633 37.9733 7.76997 38.1067 7.92997 38.16C8.08997 38.2133 8.27663 38.2133 8.48997 38.16C8.7033 38.1067 8.8633 37.9733 8.96997 37.76L10.89 33.76C11.21 33.2267 11.69 32.96 12.33 32.96H35.69C36.33 32.96 36.81 33.2267 37.13 33.76L39.05 37.76C39.1566 37.9733 39.3166 38.1067 39.53 38.16C39.7433 38.2133 39.93 38.2133 40.09 38.16C40.25 38.1067 40.3566 37.9733 40.41 37.76C40.4633 37.5467 40.49 37.3333 40.49 37.12L37.93 32.32C37.61 31.68 37.45 30.9867 37.45 30.24V8.96C37.45 8.53333 37.3166 8.18666 37.05 7.92C36.7833 7.65333 36.4366 7.52 36.01 7.52H12.01Z" fill="#2AC3DE"/>
</svg>
