<svg width="25" height="24" viewBox="0 0 25 24" fill="none" xmlns="http://www.w3.org/2000/svg">
<path d="M7.19016 3.11999C6.97683 3.06666 6.79016 3.10666 6.63016 3.23999C6.47016 3.37333 6.3635 3.54666 6.31016 3.75999L3.51016 19.6C3.45683 19.8133 3.49683 20 3.63016 20.16C3.7635 20.32 3.93683 20.4267 4.15016 20.48L7.11016 21.04C7.27016 21.04 7.4435 20.9867 7.63016 20.88C7.81683 20.7733 7.93683 20.6133 7.99016 20.4L10.7902 4.55999C10.7902 4.34666 10.7368 4.14666 10.6302 3.95999C10.5235 3.77333 10.3635 3.67999 10.1502 3.67999L7.19016 3.11999ZM7.27016 5.03999L9.43016 5.43999C9.53683 5.43999 9.61683 5.47999 9.67016 5.55999C9.7235 5.63999 9.75016 5.73333 9.75016 5.83999L9.59016 6.63999C9.59016 6.69333 9.55016 6.75999 9.47016 6.83999C9.39016 6.91999 9.29683 6.93333 9.19016 6.87999L6.95016 6.47999C6.84349 6.47999 6.76349 6.43999 6.71016 6.35999C6.65683 6.27999 6.63016 6.18666 6.63016 6.07999L6.79016 5.35999C6.79016 5.25333 6.84349 5.17333 6.95016 5.11999C7.05683 5.06666 7.1635 5.03999 7.27016 5.03999ZM4.55016 17.92C4.6035 17.8133 4.67016 17.7333 4.75016 17.68C4.83016 17.6267 4.9235 17.6 5.03016 17.6L7.27016 18C7.32349 18 7.39016 18.04 7.47016 18.12C7.55016 18.2 7.57683 18.2933 7.55016 18.4C7.5235 18.5067 7.47016 18.5867 7.39016 18.64C7.31016 18.6933 7.21683 18.72 7.11016 18.72L4.87016 18.32C4.7635 18.32 4.6835 18.28 4.63016 18.2C4.57683 18.12 4.55016 18.0267 4.55016 17.92ZM4.79016 18.72L7.03016 19.12C7.13683 19.12 7.21683 19.16 7.27016 19.24C7.32349 19.32 7.35016 19.4133 7.35016 19.52C7.35016 19.6267 7.29683 19.7067 7.19016 19.76C7.08349 19.8133 6.97683 19.84 6.87016 19.84L4.71016 19.44C4.6035 19.44 4.5235 19.4 4.47016 19.32C4.41683 19.24 4.39016 19.1467 4.39016 19.04C4.39016 18.9333 4.4435 18.84 4.55016 18.76C4.65683 18.68 4.73683 18.6667 4.79016 18.72ZM11.9902 3.35999C11.7768 3.35999 11.6035 3.43999 11.4702 3.59999C11.3368 3.75999 11.2702 3.94666 11.2702 4.15999V20.24C11.2702 20.4533 11.3368 20.6267 11.4702 20.76C11.6035 20.8933 11.7768 20.96 11.9902 20.96H15.0302C15.2435 20.96 15.4168 20.8933 15.5502 20.76C15.6835 20.6267 15.7502 20.4533 15.7502 20.24V4.15999C15.7502 3.94666 15.6835 3.75999 15.5502 3.59999C15.4168 3.43999 15.2435 3.35999 15.0302 3.35999H11.9902ZM12.3902 5.27999H14.6302C14.7368 5.27999 14.8302 5.30666 14.9102 5.35999C14.9902 5.41333 15.0302 5.49333 15.0302 5.59999V6.39999C15.0302 6.50666 14.9902 6.58666 14.9102 6.63999C14.8302 6.69333 14.7368 6.71999 14.6302 6.71999H12.3902C12.2835 6.71999 12.1902 6.69333 12.1102 6.63999C12.0302 6.58666 11.9902 6.50666 11.9902 6.39999V5.59999C11.9902 5.49333 12.0302 5.41333 12.1102 5.35999C12.1902 5.30666 12.2835 5.27999 12.3902 5.27999ZM11.9902 18.4C11.9902 18.2933 12.0302 18.2 12.1102 18.12C12.1902 18.04 12.2835 18 12.3902 18H14.6302C14.7368 18 14.8302 18.04 14.9102 18.12C14.9902 18.2 15.0302 18.2933 15.0302 18.4C15.0302 18.5067 14.9902 18.5867 14.9102 18.64C14.8302 18.6933 14.7368 18.72 14.6302 18.72H12.3902C12.2835 18.72 12.1902 18.6933 12.1102 18.64C12.0302 18.5867 11.9902 18.5067 11.9902 18.4ZM12.3902 19.12H14.6302C14.7368 19.12 14.8302 19.16 14.9102 19.24C14.9902 19.32 15.0302 19.4133 15.0302 19.52C15.0302 19.6267 14.9902 19.7067 14.9102 19.76C14.8302 19.8133 14.7368 19.84 14.6302 19.84H12.3902C12.2835 19.84 12.1902 19.8133 12.1102 19.76C12.0302 19.7067 11.9902 19.6267 11.9902 19.52C11.9902 19.4133 12.0302 19.32 12.1102 19.24C12.1902 19.16 12.2835 19.12 12.3902 19.12ZM16.8702 4.15999C16.8702 3.94666 16.9502 3.75999 17.1102 3.59999C17.2702 3.43999 17.4568 3.35999 17.6702 3.35999H20.6302C20.8435 3.35999 21.0302 3.43999 21.1902 3.59999C21.3502 3.75999 21.4302 3.94666 21.4302 4.15999V20.24C21.3768 20.4533 21.2835 20.6267 21.1502 20.76C21.0168 20.8933 20.8435 20.96 20.6302 20.96H17.6702C17.4568 20.96 17.2702 20.8933 17.1102 20.76C16.9502 20.6267 16.8702 20.4533 16.8702 20.24V4.15999ZM17.6702 5.59999V6.39999C17.6702 6.50666 17.6968 6.58666 17.7502 6.63999C17.8035 6.69333 17.8835 6.71999 17.9902 6.71999H20.2302C20.3368 6.71999 20.4302 6.69333 20.5102 6.63999C20.5902 6.58666 20.6302 6.50666 20.6302 6.39999V5.59999C20.6302 5.49333 20.5902 5.41333 20.5102 5.35999C20.4302 5.30666 20.3368 5.27999 20.2302 5.27999H17.9902C17.8835 5.27999 17.8035 5.30666 17.7502 5.35999C17.6968 5.41333 17.6702 5.49333 17.6702 5.59999ZM17.9902 18C17.8835 18 17.8035 18.04 17.7502 18.12C17.6968 18.2 17.6702 18.2933 17.6702 18.4C17.6702 18.5067 17.6968 18.5867 17.7502 18.64C17.8035 18.6933 17.8835 18.72 17.9902 18.72H20.2302C20.3368 18.72 20.4302 18.6933 20.5102 18.64C20.5902 18.5867 20.6302 18.5067 20.6302 18.4C20.6302 18.2933 20.5902 18.2 20.5102 18.12C20.4302 18.04 20.3368 18 20.2302 18H17.9902ZM17.6702 19.52C17.6702 19.6267 17.6968 19.7067 17.7502 19.76C17.8035 19.8133 17.8835 19.84 17.9902 19.84H20.2302C20.3368 19.84 20.4302 19.8133 20.5102 19.76C20.5902 19.7067 20.6302 19.6267 20.6302 19.52C20.6302 19.4133 20.5902 19.32 20.5102 19.24C20.4302 19.16 20.3368 19.12 20.2302 19.12H17.9902C17.8835 19.12 17.8035 19.16 17.7502 19.24C17.6968 19.32 17.6702 19.4133 17.6702 19.52Z" fill="#7886bd"/>
</svg>
