<svg width="458" height="458" viewBox="0 0 458 458" fill="none" xmlns="http://www.w3.org/2000/svg">
<path d="M70.6728 0.704831C72.1231 0.693415 73.5734 0.673132 75.0234 0.643308C96.3063 0.207222 113.464 6.02297 129.125 20.75C153.576 46.0756 147 82.3013 147 115C201.12 115 255.24 115 311 115C311 97.51 311 80.02 311 62C315.141 39.9136 322.258 23.2191 341.125 10.25C353.758 2.5883 367.319 0.798177 381.838 0.759763C384.032 0.75013 386.226 0.719094 388.42 0.687497C408.651 0.532648 425.221 6.61041 439.922 20.8633C453.207 35.0593 457.192 51.8216 457.295 70.6729C457.307 72.1231 457.327 73.5734 457.357 75.0234C457.793 96.3064 451.977 113.464 437.25 129.125C412.085 153.421 375.274 147 343 147C343 201.12 343 255.24 343 311C360.16 311 377.32 311 395 311C416.936 314.134 432.287 321.149 446.07 338.625C455.065 351.708 457.199 366.286 457.24 381.838C457.25 384.032 457.281 386.226 457.312 388.42C457.467 408.651 451.39 425.221 437.137 439.922C422.941 453.207 406.178 457.192 387.327 457.295C385.877 457.307 384.427 457.327 382.977 457.357C364.602 457.733 347.827 453.967 333.625 441.562C332.065 440.06 330.522 438.541 329 437C328.364 436.386 327.729 435.773 327.074 435.141C304.187 411.39 311 371.316 311 343C256.88 343 202.76 343 147 343C147 360.49 147 377.98 147 396C143.282 415.827 137.827 431.044 122 444C107.499 453.76 93.498 457.194 76.1623 457.24C73.9679 457.25 71.7743 457.281 69.5801 457.312C49.3495 457.467 32.7792 451.39 18.0781 437.137C4.79319 422.941 0.80751 406.178 0.70483 387.327C0.693414 385.877 0.673131 384.427 0.643307 382.977C0.254596 364.006 4.25686 346.386 17.6897 332.233C30.8527 318.884 44.4751 313.058 63 311C80.16 311 97.32 311 115 311C115 256.88 115 202.76 115 147C97.84 147 80.68 147 63 147C42.9552 144.136 26.8932 138.092 14 122C3.93755 107.911 0.804845 93.2019 0.759762 76.1624C0.750129 73.9679 0.719093 71.7743 0.687496 69.5801C0.532647 49.3495 6.61041 32.7792 20.8633 18.0781C35.0593 4.79319 51.8216 0.807511 70.6728 0.704831ZM40.25 43.75C32.8422 52.6969 31.8073 61.9585 31.75 73.1875C31.7294 74.1781 31.7087 75.1688 31.6875 76.1895C31.6302 87.1079 34.2087 96.8032 41.7852 104.91C49.146 111.803 57.3549 115.138 67.4329 115.114C69.0239 115.113 69.0239 115.113 70.6472 115.113C71.7807 115.108 72.9142 115.103 74.082 115.098C75.2513 115.096 76.4207 115.095 77.6254 115.093C81.3545 115.088 85.0835 115.075 88.8125 115.062C91.3431 115.057 93.8737 115.053 96.4043 115.049C102.603 115.038 108.801 115.021 115 115C115.076 107.635 115.129 100.27 115.165 92.9053C115.18 90.403 115.2 87.9007 115.226 85.3984C115.263 81.789 115.28 78.1799 115.293 74.5703C115.308 73.4626 115.324 72.3549 115.34 71.2137C115.342 59.4437 112.47 49.9663 104.371 41.2461C95.4815 33.0165 85.4404 31.8094 73.8125 31.75C72.3265 31.7191 72.3265 31.7191 70.8105 31.6875C58.7955 31.6245 48.5785 34.8556 40.25 43.75ZM349.539 45.8164C344.873 52.4367 342.867 59.3786 342.886 67.4329C342.887 68.4936 342.887 69.5543 342.887 70.6472C342.892 71.7807 342.897 72.9142 342.902 74.082C342.904 75.2513 342.905 76.4207 342.907 77.6254C342.912 81.3545 342.925 85.0835 342.938 88.8125C342.943 91.3431 342.947 93.8737 342.951 96.4043C342.962 102.603 342.979 108.801 343 115C350.383 115.051 357.766 115.086 365.15 115.11C367.659 115.12 370.168 115.134 372.677 115.151C376.294 115.175 379.91 115.187 383.527 115.195C385.197 115.211 385.197 115.211 386.9 115.227C398.487 115.228 408.018 113.384 416.824 105.332C425.52 95.7599 426.22 86.3488 426.312 73.875C426.342 72.5937 426.371 71.3123 426.4 69.9922C426.476 58.6422 424.038 49.324 416 41C406.778 33.1943 396.8 31.4902 385 31.625C383.984 31.6134 382.968 31.6018 381.922 31.5898C368.767 31.6404 358.034 35.5563 349.539 45.8164ZM147 147C147 201.45 147 255.9 147 312C201.12 312 255.24 312 311 312C311 257.55 311 203.1 311 147C256.88 147 202.76 147 147 147ZM40.25 354.75C32.8422 363.697 31.8073 372.958 31.75 384.188C31.7294 385.178 31.7087 386.169 31.6875 387.189C31.6302 398.108 34.2087 407.803 41.7852 415.91C51.1225 424.654 60.826 426.187 73.1875 426.25C74.6735 426.281 74.6735 426.281 76.1894 426.312C87.7977 426.373 97.1725 423.341 105.754 415.371C112.211 408.396 115.136 399.992 115.114 390.567C115.113 389.506 115.113 388.446 115.113 387.353C115.108 386.219 115.103 385.086 115.098 383.918C115.096 382.749 115.095 381.579 115.093 380.375C115.088 376.646 115.075 372.917 115.062 369.188C115.057 366.657 115.053 364.126 115.049 361.596C115.038 355.397 115.021 349.199 115 343C107.635 342.924 100.27 342.871 92.9053 342.835C90.4029 342.82 87.9007 342.8 85.3984 342.774C81.789 342.737 78.1799 342.72 74.5703 342.707C72.9088 342.684 72.9088 342.684 71.2136 342.66C59.0194 342.658 48.7295 345.694 40.25 354.75ZM343 343C342.949 350.383 342.914 357.766 342.89 365.15C342.88 367.659 342.866 370.168 342.849 372.677C342.825 376.294 342.813 379.91 342.805 383.527C342.794 384.64 342.784 385.753 342.773 386.9C342.772 398.487 344.616 408.018 352.668 416.824C362.278 425.555 371.669 426.201 384.188 426.25C385.477 426.271 386.767 426.291 388.096 426.312C400.033 426.361 408.294 424.444 417 416C424.823 406.814 426.51 396.778 426.375 385C426.387 383.984 426.398 382.968 426.41 381.922C426.368 370.985 423.808 361.214 416.215 353.09C408.854 346.197 400.645 342.862 390.567 342.886C388.976 342.887 388.976 342.887 387.353 342.887C386.219 342.892 385.086 342.897 383.918 342.902C382.164 342.904 382.164 342.904 380.375 342.907C376.646 342.912 372.917 342.925 369.188 342.938C366.657 342.943 364.126 342.947 361.596 342.951C355.397 342.962 349.199 342.979 343 343Z" fill="#d4d5da"/>
</svg>
