<svg width="25" height="24" viewBox="0 0 25 24" fill="none" xmlns="http://www.w3.org/2000/svg">
<path d="M3.21998 10.96L10.66 2.8C11.0333 2.42667 11.4866 2.24001 12.02 2.24001C12.5533 2.24001 13.0066 2.42667 13.38 2.8L15.62 5.28001V3.60001C15.62 3.49334 15.66 3.38667 15.74 3.28001C15.82 3.17334 15.94 3.12001 16.1 3.12001H18.74C18.9 3.12001 19.02 3.17334 19.1 3.28001C19.18 3.38667 19.22 3.49334 19.22 3.60001V9.28001L20.82 10.96C20.9266 11.1733 21.0066 11.3867 21.06 11.6V19.52C21.06 20 20.7933 20.24 20.26 20.24H14.26C14.1533 20.24 14.06 20.2 13.98 20.12C13.9 20.04 13.86 19.92 13.86 19.76V14.88C13.86 14.72 13.8066 14.6 13.7 14.52C13.5933 14.44 13.4866 14.4 13.38 14.4H10.66C10.5533 14.4 10.46 14.44 10.38 14.52C10.3 14.6 10.26 14.72 10.26 14.88V19.76C10.2066 19.92 10.14 20.04 10.06 20.12C9.97998 20.2 9.88665 20.24 9.77998 20.24H3.77998C3.29998 20.24 3.03331 20 2.97998 19.52V11.6C3.03331 11.3867 3.11331 11.1733 3.21998 10.96Z" fill="#7886bd"/>
</svg>
