<svg xmlns="http://www.w3.org/2000/svg" width="24" height="24" viewBox="0 0 24 24" fill="none">
<path d="M7.76005 6.55999L6.00005 5.75999C5.84005 5.70666 5.66672 5.70666 5.48005 5.75999C5.29339 5.81332 5.14672 5.94666 5.04005 6.15999L3.44005 8.87999C3.38672 9.03999 3.37339 9.21333 3.40005 9.39999C3.42672 9.58666 3.52005 9.75999 3.68005 9.91999L5.20005 11.04V12.96L3.68005 14.08C3.52005 14.24 3.42672 14.4133 3.40005 14.6C3.37339 14.7867 3.38672 14.96 3.44005 15.12L5.04005 17.84C5.14672 18.0533 5.29339 18.1867 5.48005 18.24C5.66672 18.2933 5.84005 18.2933 6.00005 18.24L7.76005 17.44L9.44005 18.48L9.68005 20.32C9.68005 20.5333 9.76005 20.7067 9.92005 20.84C10.0801 20.9733 10.2401 21.0133 10.4001 20.96H13.6001C13.7601 20.96 13.9201 20.9067 14.0801 20.8C14.2401 20.6933 14.3201 20.5333 14.3201 20.32L14.5601 18.48L16.2401 17.44L18.0001 18.24C18.1601 18.2933 18.3334 18.2933 18.5201 18.24C18.7067 18.1867 18.8534 18.0533 18.9601 17.84L20.5601 15.12C20.6134 14.96 20.6267 14.7867 20.6001 14.6C20.5734 14.4133 20.4801 14.24 20.3201 14.08L18.8001 12.96V11.04L20.3201 9.91999C20.4801 9.75999 20.5734 9.58666 20.6001 9.39999C20.6267 9.21333 20.6134 9.03999 20.5601 8.87999L18.9601 6.15999C18.8534 5.94666 18.7067 5.81332 18.5201 5.75999C18.3334 5.70666 18.1601 5.70666 18.0001 5.75999L16.2401 6.55999L14.5601 5.51999L14.3201 3.67999C14.3201 3.46666 14.2401 3.29333 14.0801 3.15999C13.9201 3.02666 13.7601 2.98666 13.6001 3.03999H10.4001C10.2401 2.98666 10.0801 3.02666 9.92005 3.15999C9.76005 3.29333 9.68005 3.46666 9.68005 3.67999L9.44005 5.51999L7.76005 6.55999ZM12.0001 15.12C11.1467 15.12 10.4267 14.8133 9.84005 14.2C9.25339 13.5867 8.96005 12.8533 8.96005 12C8.96005 11.1467 9.25339 10.4133 9.84005 9.79999C10.4267 9.18666 11.1467 8.87999 12.0001 8.87999C12.8534 8.87999 13.5734 9.18666 14.1601 9.79999C14.7467 10.4133 15.0401 11.1467 15.0401 12C15.0401 12.8533 14.7467 13.5867 14.1601 14.2C13.5734 14.8133 12.8534 15.12 12.0001 15.12Z" fill="#9aa5ce"/>
</svg>