<svg width="25" height="24" viewBox="0 0 25 24" fill="none" xmlns="http://www.w3.org/2000/svg">
<path d="M10.33 3.76001C10.33 3.54667 10.3966 3.36001 10.53 3.20001C10.6633 3.04001 10.8366 2.96001 11.05 2.96001H13.29C13.5033 2.96001 13.6766 3.04001 13.81 3.20001C13.9433 3.36001 14.01 3.54667 14.01 3.76001V19.52H15.93V6.72001C15.93 6.50667 15.9966 6.33334 16.13 6.20001C16.2633 6.06667 16.4366 6.00001 16.65 6.00001H18.89C19.1033 6.00001 19.29 6.06667 19.45 6.20001C19.61 6.33334 19.69 6.50667 19.69 6.72001V19.52H20.41C20.6233 19.52 20.81 19.5867 20.97 19.72C21.13 19.8533 21.21 20.0267 21.21 20.24C21.21 20.4533 21.13 20.6267 20.97 20.76C20.81 20.8933 20.6233 20.96 20.41 20.96H3.92996C3.71663 20.96 3.54329 20.8933 3.40996 20.76C3.27663 20.6267 3.20996 20.4533 3.20996 20.24C3.20996 20.0267 3.27663 19.8533 3.40996 19.72C3.54329 19.5867 3.71663 19.52 3.92996 19.52H4.64996V10.16C4.64996 9.94667 4.72996 9.76001 4.88996 9.60001C5.04996 9.44001 5.23663 9.36001 5.44996 9.36001H7.68996C7.90329 9.36001 8.07663 9.44001 8.20996 9.60001C8.34329 9.76001 8.40996 9.94667 8.40996 10.16V19.52H10.33V3.76001Z" fill="#7886bd"/>
</svg>
